<?xml version="1.0" encoding="iso-8859-1"?>
<!-- Generator: Adobe Illustrator 19.0.0, SVG Export Plug-In . SVG Version: 6.00 Build 0)  -->
<svg xmlns="http://www.w3.org/2000/svg" xmlns:xlink="http://www.w3.org/1999/xlink" version="1.1" id="Layer_1" x="0px" y="0px" viewBox="0 0 490.6 490.6" style="enable-background:new 0 0 490.6 490.6;" xml:space="preserve" width="512" height="512">
<g>
	<path style="fill:#FFDA44;" d="M367.39,51.46V475.6c0,8.28-6.71,15-15,15H26.67c-8.28,0-15-6.72-15-15V51.46c0-8.28,6.72-15,15-15   h325.72C360.68,36.46,367.39,43.18,367.39,51.46z"/>
	<path style="fill:#FFB655;" d="M367.39,51.46V475.6c0,8.28-6.71,15-15,15H189.53V36.46h162.86   C360.68,36.46,367.39,43.18,367.39,51.46z"/>
	<path style="fill:#FFE1BB;" d="M288.9,440.21c0,8.28-6.72,15-15,15h-84.37v-30h84.37C282.18,425.21,288.9,431.92,288.9,440.21z"/>
	<path style="fill:#FF4C04;" d="M286.69,15v42.93c0,8.28-6.71,15-15,15H110.56c-8.29,0-15-6.72-15-15V15c0-8.29,6.71-15,15-15   h161.13C279.98,0,286.69,6.71,286.69,15z"/>
	<path style="fill:#BF3700;" d="M286.69,15v42.93c0,8.28-6.71,15-15,15h-82.16V0h82.16C279.98,0,286.69,6.71,286.69,15z"/>
	<path style="fill:#BF3700;" d="M318.84,130.39l-43.49,43.49c-0.46,0.46-0.94,0.89-1.45,1.27c-5.88,4.55-14.37,4.12-19.76-1.27   l-25.18-25.18c-5.86-5.86-5.86-15.35,0-21.21c5.86-5.86,15.36-5.86,21.21,0l14.57,14.57l32.88-32.88c5.86-5.86,15.36-5.86,21.22,0   C324.7,115.04,324.7,124.53,318.84,130.39z"/>
	<path style="fill:#FF4C04;" d="M175.04,141.53c0,8.28-6.72,15-15,15H70.83c-8.28,0-15-6.72-15-15c0-8.29,6.72-15,15-15h89.21   C168.32,126.53,175.04,133.24,175.04,141.53z"/>
	<path style="fill:#BF3700;" d="M318.84,215.6l-43.49,43.49c-0.46,0.46-0.94,0.88-1.45,1.27c-5.88,4.54-14.37,4.12-19.76-1.27   l-25.18-25.18c-5.86-5.86-5.86-15.36,0-21.21c5.86-5.86,15.36-5.86,21.21,0l14.57,14.57l9.16-9.16l23.72-23.72   c5.86-5.86,15.36-5.86,21.22,0C324.7,200.24,324.7,209.74,318.84,215.6z"/>
	<path style="fill:#FF4C04;" d="M175.04,226.74c0,8.28-6.72,15-15,15H70.83c-8.28,0-15-6.72-15-15c0-8.29,6.72-15,15-15h89.21   C168.32,211.74,175.04,218.45,175.04,226.74z"/>
	<path style="fill:#BF3700;" d="M318.84,300.81l-43.49,43.48c-0.46,0.46-0.94,0.89-1.45,1.27c-5.88,4.55-14.37,4.13-19.76-1.27   l-25.18-25.17c-5.86-5.86-5.86-15.36,0-21.22c5.86-5.85,15.36-5.85,21.21,0l14.57,14.57l9.16-9.16l23.72-23.72   c5.86-5.85,15.36-5.85,21.22,0C324.7,285.45,324.7,294.95,318.84,300.81z"/>
	<path style="fill:#FF4C04;" d="M175.04,311.94c0,8.29-6.72,15-15,15H70.83c-8.28,0-15-6.71-15-15c0-8.28,6.72-15,15-15h89.21   C168.32,296.94,175.04,303.66,175.04,311.94z"/>
	<path style="fill:#FF4C04;" d="M224.57,385.98c0,8.29-6.72,15-15,15H70.83c-8.28,0-15-6.71-15-15c0-8.28,6.72-15,15-15h138.74   C217.85,370.98,224.57,377.7,224.57,385.98z"/>
	<path style="fill:#BF3700;" d="M209.57,400.98h-20.04v-30h20.04c8.28,0,15,6.72,15,15C224.57,394.271,217.85,400.98,209.57,400.98z   "/>
	<path style="fill:#FF4C04;" d="M288.9,440.21c0,8.28-6.72,15-15,15H70.83c-8.28,0-15-6.72-15-15c0-8.29,6.72-15,15-15H273.9   C282.18,425.21,288.9,431.92,288.9,440.21z"/>
	<path style="fill:#BF3700;" d="M288.9,440.21c0,8.28-6.72,15-15,15h-84.37v-30h84.37C282.18,425.21,288.9,431.92,288.9,440.21z"/>
	<path style="fill:#FF4C04;" d="M478.93,338.89v7.31l-27.25,93.71c-0.87,2.98-3.41,4.48-5.96,4.48c-2.54,0-5.09-1.5-5.96-4.48   l-27.25-93.71v-7.31H478.93z"/>
	<path style="fill:#BF3700;" d="M445.72,338.89h33.21v7.31l-27.25,93.71c-0.87,2.98-3.41,4.48-5.96,4.48V338.89z"/>
	<path style="fill:#FF4C04;" d="M478.93,75.88v44.35h-66.42V76.59c0-18.03,14.08-33.31,32.1-33.9c0.37-0.01,0.74-0.02,1.11-0.02   C464,42.68,478.93,57.51,478.93,75.88z"/>
	<path style="fill:#BF3700;" d="M478.93,75.88v44.35h-33.21V42.67C464,42.68,478.93,57.51,478.93,75.88z"/>
	<rect x="412.51" y="113.65" style="fill:#FFDA44;" width="66.42" height="232.55"/>
	<rect x="445.72" y="113.65" style="fill:#FFB655;" width="33.21" height="232.55"/>
</g>















</svg>
