<svg id="Layer_1" enable-background="new 0 0 256 256" height="512" viewBox="0 0 256 256" width="512" xmlns="http://www.w3.org/2000/svg"><g><g><path d="m128 235.387h-124l62-107.387 62-107.387 62 107.387 62 107.387z" fill="#526faa"/></g><g><path d="m190 128-62-107.387 104 214.774h20z" fill="#34518c"/></g><g><path d="m66 128-20.667 35.796h165.334l-20.667-35.796-20.667-35.796h-82.666z" fill="#fcc24c"/></g><g><path d="m197.333 163.796h13.334l-20.667-35.796-20.667-35.796h-6.666z" fill="#dea42e"/></g><g><path d="m45.333 163.796-41.333 71.591h124 124l-41.333-71.591z" fill="#f4efed"/></g><g><path d="m210.667 163.796h-13.334l34.667 71.591h-114-114 124 124z" fill="#d6d1cf"/></g><g><path d="m66 128 62-107.387-104 214.774h-20z" fill="#708dc8"/></g><g><path d="m58.667 163.796h-13.334l20.667-35.796 20.667-35.796h6.666z" fill="#fce06a"/></g><g><path d="m45.333 163.796h13.334l-34.667 71.591h114 114-124-124z" fill="#fff"/></g><g><path d="m52.288 113.85-8.774-10.272-8.775-10.272-8.774 10.272-8.775 10.272h10.424v28.844h14.251v-28.844z" fill="#fcc24c"/></g><g><path d="m203.712 122.15 8.774 10.272 8.775 10.272 8.774-10.272 8.775-10.272h-10.424v-28.844h-14.251v28.844z" fill="#ff4397"/></g><g><path d="m210.667 165.796h-165.334c-.714 0-1.375-.381-1.732-1-.358-.619-.358-1.381 0-2l41.333-71.592c.357-.619 1.018-1 1.732-1h82.667c.715 0 1.375.381 1.732 1l41.334 71.592c.356.619.356 1.381 0 2-.357.619-1.017 1-1.732 1zm-161.87-4h158.406l-39.024-67.592h-80.358z" fill="#690589"/></g><g><path d="m252 237.387h-248c-.714 0-1.375-.381-1.732-1s-.357-1.381 0-2l41.333-71.591c.357-.619 1.017-1 1.732-1h165.334c.715 0 1.375.381 1.732 1l41.333 71.591c.357.619.357 1.381 0 2s-1.017 1-1.732 1zm-244.536-4h241.072l-39.023-67.591h-163.025z" fill="#690589"/></g><g><path d="m252 237.387h-248c-.714 0-1.375-.381-1.732-1s-.357-1.381 0-2l124-214.774c.357-.619 1.018-1 1.732-1s1.375.381 1.732 1l124 214.774c.357.619.357 1.381 0 2s-1.017 1-1.732 1zm-244.536-4h241.072l-120.536-208.774z" fill="#690589"/></g><g><path d="m41.865 144.694h-14.251c-1.104 0-2-.896-2-2v-26.844h-8.424c-.78 0-1.49-.454-1.816-1.163-.327-.709-.211-1.543.296-2.136l17.549-20.545c.76-.89 2.281-.89 3.041 0l17.549 20.545c.507.593.623 1.427.296 2.136-.327.708-1.036 1.163-1.816 1.163h-8.423v26.844c-.001 1.105-.897 2-2.001 2zm-12.251-4h10.251v-26.844c0-1.104.896-2 2-2h6.084l-13.21-15.465-13.21 15.465h6.084c1.104 0 2 .896 2 2v26.844z" fill="#690589"/></g><g><path d="m221.261 144.694c-.585 0-1.141-.256-1.521-.701l-17.549-20.545c-.507-.593-.622-1.427-.296-2.136.327-.708 1.036-1.163 1.816-1.163h8.424v-26.843c0-1.104.896-2 2-2h14.25c1.104 0 2 .896 2 2v26.844h8.424c.78 0 1.489.454 1.816 1.163.326.709.211 1.543-.296 2.136l-17.549 20.545c-.379.444-.934.7-1.519.7zm-13.21-20.545 13.21 15.465 13.21-15.465h-6.085c-1.104 0-2-.896-2-2v-26.843h-10.25v26.844c0 1.104-.896 2-2 2h-6.085z" fill="#690589"/></g><g><path d="m130.393 57.322c.858.474 1.39 1.377 1.39 2.357v17.433c0 1.122-1.056 1.958-2.164 1.738-.848-.169-1.415-.985-1.415-1.849v-15.751l-1.289.742c-.29.194-.613.259-.903.259-.613 0-1.193-.323-1.516-.903-.547-.806-.257-1.935.581-2.418l2.638-1.566c.823-.489 1.842-.504 2.678-.042z" fill="#690589"/></g><g><path d="m135.523 137.511c0 1-.774 1.773-1.773 1.773h-11.413s0 0-.033 0h-.032c-.484 0-1-.193-1.322-.58-.677-.742-.613-1.837.096-2.515l9.544-8.641c.935-.837 1.353-1.935 1.353-3.095 0-1.032-.354-1.999-1.063-2.805-.839-.935-1.967-1.353-3.095-1.353-1 0-1.999.354-2.805 1.063l-1 .903c-.74.677-1.838.613-2.514-.129-.646-.742-.613-1.838.129-2.515l.999-.903c1.452-1.354 3.354-1.999 5.191-1.999 2.095 0 4.222.87 5.739 2.548 1.355 1.45 1.999 3.352 1.999 5.19 0 2.096-.87 4.224-2.548 5.738l-6.093 5.514h6.867c.999.001 1.774.807 1.774 1.806z" fill="#690589"/></g><g><path d="m132.747 197.206c1.579 1.548 2.354 3.611 2.354 5.641 0 2.032-.774 4.095-2.354 5.674-1.547 1.548-3.611 2.353-5.674 2.353-2.032 0-4.095-.806-5.643-2.353-.709-.709-.709-1.869 0-2.579.71-.709 1.87-.709 2.579 0 .839.839 1.935 1.257 3.063 1.257s2.225-.419 3.095-1.257c.87-.87 1.289-1.966 1.289-3.095 0-1.127-.419-2.223-1.289-3.062-.839-.87-1.935-1.257-3.064-1.29-.516.033-.999-.193-1.322-.58-.032 0-.032 0-.032-.031-.742-.71-.742-1.838-.064-2.579l3.288-3.354h-5.223c-1 0-1.806-.806-1.806-1.838 0-.999.806-1.805 1.806-1.805h9.511c1.032 0 1.838.806 1.838 1.805 0 .323-.097.613-.226.87-.097.161-.193.323-.323.451l-4.062 4.191c.841.388 1.614.904 2.259 1.581z" fill="#690589"/></g><g><path d="m44.345 194.124c-.292 0-.589-.064-.87-.2-.994-.481-1.41-1.678-.929-2.672l5.811-12c.482-.995 1.678-1.41 2.672-.929.994.482 1.41 1.678.929 2.672l-5.811 12c-.346.714-1.06 1.129-1.802 1.129z" fill="#690589"/></g></g></svg>